<svg width="105" height="105" viewBox="0 0 105 105" fill="none" xmlns="http://www.w3.org/2000/svg">
    <path d="M61.757 2.154a250.14 250.14 0 0 1-4.413 4.214l12.64 12.64-3.128 3.13-9.487 9.474a249.697 249.697 0 0 0 4.213 4.413l17.03-17.029L61.756 2.142v.012z" fill="#E0EF29"/>
    <path d="M70.734 15.867H23.648v6.27h47.086v-6.27z" fill="#E0EF29"/>
    <path d="M23.656 15.867v39.02h6.27v-39.02h-6.27zM40.503 102.894a247.864 247.864 0 0 1 4.413-4.214l-12.64-12.641 3.128-3.129 9.487-9.474a250.396 250.396 0 0 0-4.213-4.414l-17.03 17.03 16.855 16.854v-.012z" fill="#E0EF29"/>
    <path d="M78.617 82.897H31.53v6.271h47.086v-6.27z" fill="#E0EF29"/>
    <path d="M78.617 89.18V50.162h-6.27v39.02h6.27zM65.336 53.325c-7.38.202-13.389 5.754-13.985 12.806-.611-7.052-6.62-12.618-14.015-12.806 7.514-.216 13.583-5.97 13.985-13.194.418 7.224 6.5 12.993 14.015 13.194z" fill="#E0EF29"/>
</svg>
