<svg width="105" height="105" viewBox="0 0 105 105" fill="none" xmlns="http://www.w3.org/2000/svg">
    <path d="M64.063 53.657C58 53.82 53.065 58.305 52.575 64c-.502-5.696-5.438-10.191-11.513-10.343C47.236 53.483 52.22 48.835 52.55 43c.343 5.835 5.34 10.494 11.513 10.657z" fill="#000"/>
    <path d="M53.07 13h-1.016c-22.087 0-39.992 17.905-39.992 39.992v1.016C12.063 76.095 29.968 94 52.054 94h1.017c22.087 0 39.992-17.905 39.992-39.992v-1.016C93.063 30.905 75.157 13 53.07 13z" stroke="#000" stroke-width="6" stroke-miterlimit="10"/>
    <path d="M16.063 54a40.983 40.983 0 0 1 7.362-9.975C30.888 36.6 41.186 32 52.562 32 63.94 32 74.237 36.6 81.7 44.025A40.983 40.983 0 0 1 89.062 54c-6.886 13.075-20.645 22-36.5 22-11.376 0-21.674-4.6-29.137-12.025A40.983 40.983 0 0 1 16.062 54z" stroke="#000" stroke-width="6" stroke-miterlimit="10"/>
</svg>
