<svg width="105" height="106" viewBox="0 0 105 106" fill="none" xmlns="http://www.w3.org/2000/svg">
    <path d="M65.664 39.818c-7.117.194-12.91 5.532-13.486 12.313-.589-6.78-6.383-12.133-13.514-12.313 7.246-.208 13.097-5.74 13.486-12.687.402 6.947 6.268 12.493 13.514 12.687z" fill="#ff8410"/>
    <path d="M52.861 11h-.722C36.599 11 24 23.598 24 39.139v.722C24 55.401 36.598 68 52.139 68h.722C68.401 68 81 55.402 81 39.861v-.722C81 23.599 68.402 11 52.861 11zM98 103H7c5.372-20.056 23.53-34.834 45.146-35h.708c12.869.095 24.521 5.385 32.962 13.865A47.345 47.345 0 0 1 98 103zM53 68v24" stroke="#ff8410" stroke-width="6" stroke-miterlimit="10"/>
</svg>
