<svg width="105" height="105" viewBox="0 0 105 105" fill="none" xmlns="http://www.w3.org/2000/svg">
    <path d="M93.648 24.71h-87v53h87v-53z" stroke="#ff8410" stroke-width="6" stroke-miterlimit="10"/>
    <path d="m94.923 73.814-3.884 3.884 9.695 9.696 3.885-3.885-9.696-9.695zM60.511 51.88c-5.416.154-9.826 4.367-10.264 9.718-.449-5.351-4.858-9.575-10.286-9.717a10.595 10.595 0 0 0 10.264-10.013c.307 5.482 4.771 9.86 10.286 10.013zM73.02 59.124a7.386 7.386 0 1 0 0-14.772 7.386 7.386 0 0 0 0 14.772zM27.035 59.124a7.386 7.386 0 1 0 0-14.772 7.386 7.386 0 0 0 0 14.772z" fill="#ff8410"/>
</svg>
