<svg width="105" height="105" viewBox="0 0 105 105" fill="none" xmlns="http://www.w3.org/2000/svg">
    <g clip-path="url(#abuzb9kz6a)">
        <path d="M92.113 28.24h-79.66v48.18h79.66V28.24z" stroke="#ff8410" stroke-width="5" stroke-miterlimit="10"/>
        <path d="M18.714 22.77H7.094v11.62h11.62V22.77zM97.91 22.77H86.29v11.62h11.62V22.77zM18.714 70.61H7.094v11.62h11.62V70.61zM97.91 70.61H86.29v11.62h11.62V70.61zM66 52.325c-7.117.202-12.91 5.754-13.486 12.806-.59-7.052-6.383-12.618-13.514-12.806 7.246-.216 13.097-5.97 13.486-13.194.402 7.224 6.268 12.993 13.514 13.194z" fill="#ff8410"/>
    </g>
    <defs>
        <clipPath id="abuzb9kz6a">
            <path fill="#ff8410" d="M0 0h105v105H0z"/>
        </clipPath>
    </defs>
</svg>
