<svg width="155" height="155" viewBox="0 0 155 155" fill="none" xmlns="http://www.w3.org/2000/svg">
    <path d="M59.672 77.502c0-12.801 7.233-23.91 17.833-29.473a33.099 33.099 0 0 0-15.443-3.804c-18.378 0-33.277 14.898-33.277 33.277 0 18.378 14.899 33.277 33.277 33.277a33.077 33.077 0 0 0 15.443-3.805c-10.6-5.567-17.833-16.672-17.833-29.472z" fill="#000"/>
    <path d="M77.502 103.637a30.177 30.177 0 0 1-6.709-5.373 29.864 29.864 0 0 1-4.292-5.83 29.901 29.901 0 0 1-2.129-4.647 29.782 29.782 0 0 1-1.46-5.83 29.791 29.791 0 0 1-.329-4.457c0-.23.006-.467.016-.699.036-1.984.272-3.933.694-5.83a30.123 30.123 0 0 1 6.04-12.564 30.156 30.156 0 0 1 8.17-7.043c.441-.267.894-.52 1.356-.76l4.91-2.576-4.91-2.581a36.342 36.342 0 0 0-16.8-4.138c-19.957 0-36.192 16.235-36.192 36.191 0 19.957 16.235 36.192 36.192 36.192a36.345 36.345 0 0 0 16.8-4.138l4.91-2.581-4.91-2.575a25.398 25.398 0 0 1-1.357-.761zM62.06 47.138c3.162 0 6.23.473 9.177 1.409a36.108 36.108 0 0 0-11.969 15.685A36.192 36.192 0 0 0 56.76 77.5a36.061 36.061 0 0 0 3.218 14.935 35.652 35.652 0 0 0 3.316 5.83 36.26 36.26 0 0 0 7.943 8.189 30.171 30.171 0 0 1-9.177 1.409c-16.744 0-30.362-13.619-30.362-30.363 0-16.743 13.618-30.362 30.362-30.362z" fill="#000"/>
    <path d="M92.948 41.309a36.303 36.303 0 0 0-16.8 4.138l-2 1.049-2.91 1.532 3.326 1.742 1.589.833c.457.242.91.494 1.352.761a30.311 30.311 0 0 1 8.169 7.043 29.881 29.881 0 0 1 3.706 5.825 29.892 29.892 0 0 1 2.334 6.74c.422 1.897.659 3.845.694 5.83.01.23.016.467.016.698 0 1.507-.108 2.998-.33 4.458a29.79 29.79 0 0 1-1.46 5.83 29.892 29.892 0 0 1-2.127 4.647 29.86 29.86 0 0 1-4.293 5.83 30.034 30.034 0 0 1-6.709 5.372c-.442.267-.894.519-1.352.761l-1.589.832-3.326 1.743 2.91 1.532 2 1.049a36.306 36.306 0 0 0 16.8 4.138c19.952 0 36.187-16.235 36.187-36.192 0-19.956-16.235-36.191-36.187-36.191zm0 66.554c-3.161 0-6.236-.473-9.176-1.409A36.102 36.102 0 0 0 98.249 77.5a36.102 36.102 0 0 0-14.477-28.953 30.156 30.156 0 0 1 9.176-1.409c16.739 0 30.362 13.619 30.362 30.362 0 16.744-13.623 30.363-30.362 30.363z" fill="#000"/>
    <path d="M91.983 58.407h-32.85v5.825h32.85v-5.825zM93.74 69.618H58.991v5.83H93.74v-5.83zM93.74 79.9H58.991v5.83H93.74V79.9zM90.633 90.182H59.68v5.83h30.953v-5.83z" fill="#000"/>
</svg>
