<svg width="155" height="155" viewBox="0 0 155 155" fill="none" xmlns="http://www.w3.org/2000/svg">
    <path d="M84.383 84.457c3.802-3.801 3.802-9.965 0-13.766-3.801-3.802-9.965-3.802-13.766 0-3.802 3.801-3.802 9.965 0 13.766 3.801 3.802 9.965 3.802 13.766 0z" fill="#000"/>
    <path d="M115.201 43.613v7.784H104.21l3.079 4.935c5.275 11.032 7.557 24.66 2.596 36.228-5.701 13.299-19.366 21.519-33.76 21.417v-7.784c9.891-.02 19.592-4.796 24.789-13.294 4.915-8.03 4.823-17.371 1.877-26.12-1.229-3.65-3.09-7.393-5.758-10.195v5.341H89.25V43.613H115.2zM78.871 41.023v7.783c-10.353.047-20.023 5.717-25.056 14.703-4.452 7.953-4.53 16.672-1.846 25.252 1.203 3.84 3.162 8.01 5.995 10.873V93.07h7.783v18.317H39.8v-7.783h10.991l-3.234-5.09c-4.878-9.546-6.806-21.082-3.675-31.508 4.565-15.217 19.016-26.08 34.994-25.982h-.005z" fill="#000"/>
</svg>
