<svg width="155" height="155" viewBox="0 0 155 155" fill="none" xmlns="http://www.w3.org/2000/svg">
    <path d="M77.502 55.65c12.69 0 24.624 4.944 33.608 13.92a47.554 47.554 0 0 1 6.394 7.93 47.68 47.68 0 0 1-6.389 7.925c-8.985 8.975-20.918 13.92-33.609 13.92-12.69 0-24.633-4.945-33.608-13.92a47.485 47.485 0 0 1-6.394-7.93c8.7-13.571 23.675-21.845 40.002-21.845m-.004-7.797c-21.29 0-39.768 12.021-49.01 29.646a55.294 55.294 0 0 0 9.888 13.443c10.012 10.012 23.85 16.204 39.122 16.204 15.272 0 29.1-6.192 39.121-16.204a55.167 55.167 0 0 0 9.888-13.442 55.298 55.298 0 0 0-9.888-13.443c-10.021-10.012-23.849-16.204-39.121-16.204z" fill="#000"/>
    <path d="m85.35 63.247-.003-.004c-4.97-4.97-13.028-4.97-17.999 0l-.003.004c-4.97 4.97-4.97 13.028 0 17.999l.003.003c4.97 4.97 13.029 4.97 17.999 0l.003-.003c4.97-4.97 4.97-13.029 0-18z" fill="#000"/>
    <path d="M86.276 102.467H66.422l9.925-39.176 9.93 39.176z" fill="#000"/>
</svg>
