<svg width="69" height="55" viewBox="0 0 69 55" fill="none" xmlns="http://www.w3.org/2000/svg">
    <path d="M34.439 0C15.416 0 0 12.313 0 27.503S15.416 55 34.439 55s34.439-12.313 34.439-27.497S53.455 0 34.438 0zM5.86 27.503c5.769-8.56 15.27-14.381 26.178-15.124-3.86 1.81-6.697 7.897-6.697 15.124 0 7.228 2.838 13.315 6.697 15.125-10.908-.75-20.41-6.571-26.178-15.125zM36.84 42.628c3.86-1.81 6.697-7.897 6.697-15.125 0-7.227-2.838-13.314-6.697-15.124 10.9.743 20.409 6.564 26.17 15.124-5.768 8.554-15.27 14.375-26.17 15.125z" fill="#000"/>
</svg>
