<svg width="130" height="130" viewBox="0 0 130 130" fill="none" xmlns="http://www.w3.org/2000/svg">
    <path d="M36.811 107.981c-7.735.218-14.024 6.333-14.652 14.083-.635-7.758-6.931-13.881-14.682-14.083 7.866-.241 14.223-6.575 14.652-14.511.429 7.952 6.801 14.293 14.682 14.511z" fill="#000"/>
    <path d="m130 130-82.52-.389V83.829H0V0h82.138l.382.389v45.782H130V130zM73.628 9.026H8.624v65.778h38.848V52.878H33.884l-2.412 6.45h-9.138l13.618-39.433 10.64.218 9.006 26.058h18.03V9.026zM45.442 44.109l-4.067-12.636-4.565 12.636h8.632zm75.926 11.087H56.364v65.778h65.004V55.196z" fill="#000"/>
    <path d="M95.47 72.742h14.982v8.769h-4.573c-1.547 6.201-4.159 12.169-8.119 17.156 3.164 2.062 6.993 2.405 10.662 2.708v8.769c-6.143.163-12.3-1.626-17.394-5.073-5.124 3.361-11.229 5.252-17.394 5.073v-8.769c3.784-.21 7.26-.856 10.662-2.583-3.945-5.034-6.702-10.994-8.127-17.281h-4.825v-8.769h15.234v-6.707h8.51l.382.39v6.317zm1.272 8.769H85.314c-.16 1.68 4.81 11.344 5.714 11.344 2.719-3.268 4.557-7.251 5.714-11.344z" fill="#000"/>
</svg>
