<svg width="130" height="130" viewBox="0 0 130 130" fill="none" xmlns="http://www.w3.org/2000/svg">
    <path d="M120.633 9.367v111.266H9.367V9.367h111.266zM130 0H0v130h130V0z" fill="#000"/>
    <path d="M49.833 32.776c10.748 0 19.498 8.742 19.498 19.498S60.59 71.772 49.833 71.772 30.335 63.03 30.335 52.274s8.742-19.498 19.498-19.498zm0-9.367c-15.938 0-28.864 12.926-28.864 28.865 0 15.939 12.926 28.864 28.864 28.864 15.94 0 28.865-12.925 28.865-28.864S65.772 23.409 49.833 23.409z" fill="#000"/>
    <path d="M94.097 58.237v38.988H55.109V58.237h38.988zm9.367-9.367H45.742v57.722h57.722V48.87z" fill="#000"/>
</svg>
