<svg width="150" height="130" viewBox="0 0 150 130" fill="none" xmlns="http://www.w3.org/2000/svg">
    <path d="m75.005 18.728 58.79 101.83H16.209l58.789-101.83M75.005 0 0 129.91h150.003L75.005 0z" fill="#FF8410"/>
    <path d="M61.548 66.597c-1.42 1.404-3.776 3.635-5.367 5.125l15.374 15.374-3.814 3.814-11.536 11.529c1.49 1.591 3.72 3.939 5.132 5.366l20.71-20.709-20.5-20.499z" fill="#FF8410"/>
    <path d="M72.457 83.29H30.438v7.628h42.019V83.29zM97.65 79.546c4.165 0 7.558 3.392 7.558 7.558 0 4.165-3.393 7.558-7.558 7.558-4.166 0-7.559-3.393-7.559-7.558s3.393-7.558 7.559-7.558zm0-9.36c-9.345 0-16.919 7.573-16.919 16.918 0 9.344 7.574 16.918 16.919 16.918 9.344 0 16.918-7.574 16.918-16.918 0-9.345-7.574-16.919-16.918-16.919z" fill="#FF8410"/>
</svg>
