<svg width="43" height="82" viewBox="0 0 43 82" fill="none" xmlns="http://www.w3.org/2000/svg">
    <path fill="#fff" d="M0 0h42.624v82H0z"/>
    <path d="M0 0h6.09v5.054h6.088v5.054h6.09v5.115h6.088v-5.115h6.09V5.054h6.088V0h6.09v10.108h-6.09v5.115h-6.089v5.054h-6.089v5.054h-6.089v-5.054h-6.089v-5.054H6.09v-5.115H0V0z" fill="#000" fill-opacity=".14"/>
    <path d="M0 28.335h6.09v5.054h6.088v5.054h6.09v5.115h6.088v-5.115h6.09v-5.054h6.088v-5.054h6.09v10.108h-6.09v5.115h-6.089v5.053h-6.089v5.055h-6.089v-5.054h-6.089v-5.054H6.09v-5.115H0V28.335zM0 56.67h6.09v5.053h6.088v5.054h6.09v5.115h6.088v-5.115h6.09v-5.054h6.088V56.67h6.09v10.108h-6.09v5.115h-6.089v5.054h-6.089V82h-6.089v-5.054h-6.089v-5.054H6.09v-5.115H0V56.67z" fill="#000"/>
</svg>
