<svg width="43" height="82" viewBox="0 0 43 82" fill="none" xmlns="http://www.w3.org/2000/svg">
    <path d="M0 0h6.082v5.048h6.082v5.048h6.081v5.108h6.082v-5.108h6.082V5.048h6.081V0h6.082v10.096H36.49v5.108H30.41v5.048h-6.082V25.3h-6.082v-5.048h-6.082v-5.048H6.083v-5.108H0V0zM0 28.35h6.082v5.048h6.082v5.048h6.081v5.108h6.082v-5.108h6.082v-5.048h6.081V28.35h6.082v10.096H36.49v5.108H30.41v5.048h-6.082v5.048h-6.082v-5.048h-6.082v-5.048H6.083v-5.108H0V28.35zM0 56.7h6.082v5.048h6.082v5.048h6.081v5.108h6.082v-5.108h6.082v-5.048h6.081V56.7h6.082v10.096H36.49v5.108H30.41v5.048h-6.082V82h-6.082v-5.048h-6.082v-5.048H6.083v-5.108H0V56.7z" fill="#000"/>
</svg>
