<svg width="40" height="72" viewBox="0 0 40 72" fill="none" xmlns="http://www.w3.org/2000/svg">
    <path d="M39.998 0h-5.714v4.742H28.57v4.742h-5.714v4.801h-5.714v-4.8h-5.714V4.741H5.714V0H0v9.484h5.714v4.801h5.714v4.742h5.714v4.742h5.714v-4.742h5.714v-4.742h5.714v-4.8h5.714V0zM39.998 23.769h-5.714v4.742H28.57v4.742h-5.714v4.801h-5.714v-4.8h-5.714V28.51H5.714V23.77H0v9.484h5.714v4.801h5.714v4.742h5.714v4.742h5.714v-4.742h5.714v-4.742h5.714v-4.8h5.714v-9.485z" fill="#fff"/>
    <path d="M39.998 47.538h-5.714v4.742H28.57v4.742h-5.714v4.801h-5.714v-4.8h-5.714V52.28H5.714v-4.742H0v9.484h5.714v4.801h5.714v4.742h5.714v4.742h5.714v-4.742h5.714v-4.742h5.714v-4.8h5.714v-9.485z" fill="#fff"/>
</svg>
