<svg width="130" height="130" viewBox="0 0 130 130" fill="none" xmlns="http://www.w3.org/2000/svg">
    <path d="M81.958 65.226c-8.196.226-14.855 6.603-15.526 14.68-.671-8.085-7.345-14.47-15.557-14.68 8.337-.25 15.066-6.853 15.526-15.134.453 8.289 7.205 14.9 15.557 15.134z" fill="#E0EF29"/>
    <path d="M65 9.366c30.677 0 55.633 24.953 55.633 55.642 0 30.689-24.956 55.626-55.64 55.626-30.686 0-55.634-24.953-55.634-55.642C9.36 34.303 34.315 9.366 65 9.366zM65 0C29.1 0 0 29.097 0 64.992 0 100.895 29.1 130 65 130c35.899 0 65-29.097 65-64.992C130 29.105 100.899 0 65 0z" fill="#E0EF29"/>
    <path d="M84.987 39.79c-1.764 1.74-4.692 4.511-6.659 6.361l19.093 19.091-4.738 4.738-14.331 14.322c1.85 1.975 4.62 4.894 6.37 6.658l25.72-25.718L84.987 39.79zM22.672 65.242l25.72 25.718c1.749-1.764 4.52-4.691 6.37-6.658L40.43 69.98l-4.738-4.738 19.093-19.09c-1.974-1.85-4.894-4.621-6.658-6.362L22.672 65.242z" fill="#E0EF29"/>
</svg>
