<svg width="125" height="130" viewBox="0 0 125 130" fill="none" xmlns="http://www.w3.org/2000/svg">
    <path d="M85.18 20.3c-10.544.307-19.12 8.863-19.982 19.7-.862-10.852-9.453-19.416-20.018-19.7C55.907 19.97 64.572 11.105 65.16 0c.582 11.121 9.276 19.992 20.019 20.307V20.3zM62.5 68.27c14.082 0 27.324 5.199 37.277 14.639 9.96 9.447 15.45 22.008 15.45 35.357 0 .819-.025 1.637-.065 2.456H9.83a49.437 49.437 0 0 1-.065-2.456c0-13.357 5.49-25.91 15.45-35.357 9.952-9.44 23.195-14.64 37.277-14.64M62.5 59c-17.266 0-32.879 6.628-44.191 17.358C6.996 87.088 0 101.897 0 118.274c0 4.017.424 7.933 1.23 11.726h122.54a56.319 56.319 0 0 0 1.23-11.726c0-16.377-7.004-31.186-18.309-41.916C95.379 65.628 79.766 59 62.5 59z" fill="#fff"/>
    <path d="M37.727 103.868c1.888 1.753 4.895 4.662 6.903 6.617l20.718-18.974 5.141 4.709 15.543 14.241c2.143-1.838 5.31-4.592 7.225-6.329l-27.91-25.56-27.62 25.296z" fill="#fff"/>
    <path d="M70.477 90.402H60.203v36.916h10.274V90.402z" fill="#fff"/>
</svg>
