<svg width="130" height="130" viewBox="0 0 130 130" fill="none" xmlns="http://www.w3.org/2000/svg">
    <path d="M65.362 48.572c11.099 0 21.535 4.331 29.383 12.183a41.117 41.117 0 0 1 5.05 6.127 41.43 41.43 0 0 1-34.44 18.31c-11.099 0-21.535-4.331-29.383-12.19a41.601 41.601 0 0 1-5.05-6.128 41.597 41.597 0 0 1 5.05-6.126c7.856-7.86 18.292-12.192 29.39-12.192m0-8.57c-13.841 0-26.366 5.62-35.446 14.705a50.125 50.125 0 0 0-8.963 12.199 50.126 50.126 0 0 0 8.963 12.2c9.08 9.084 21.604 14.704 35.446 14.704 19.29 0 36.031-10.904 44.409-26.896a50.122 50.122 0 0 0-8.962-12.2c-9.072-9.084-21.605-14.704-35.447-14.704v-.008z" fill="#E0EF29"/>
    <path d="M79.308 67.084c-7.357.202-13.335 5.94-13.935 13.198-.6-7.267-6.594-13.003-13.959-13.198 7.482-.227 13.522-6.159 13.935-13.605.406 7.454 6.47 13.394 13.96 13.605zM93.859 0c-.016 2.482-.125 6.51-.21 9.21h26.966V36.16c2.697.086 6.711.195 9.197.203V0H93.859zM129.991 93.996c-2.478-.016-6.5-.125-9.197-.21v27.004H93.882c-.085 2.701-.195 6.72-.202 9.21h36.319V94.004l-.008-.008zM.195 0v36.371c2.479-.008 6.5-.117 9.205-.203V9.218h26.966c-.085-2.7-.194-6.728-.21-9.21H.196V0zM0 129.991h36.32c-.009-2.482-.118-6.509-.203-9.217H9.204V93.769c-2.696.085-6.718.195-9.196.21v35.997l-.008.015z" fill="#E0EF29"/>
</svg>
