<svg width="130" height="130" viewBox="0 0 130 130" fill="none" xmlns="http://www.w3.org/2000/svg">
    <path d="M110.07 69.472c-8.328.235-15.094 6.713-15.773 14.924-.687-8.219-7.462-14.705-15.805-14.924 8.468-.25 15.313-6.961 15.773-15.375.46 8.421 7.321 15.141 15.805 15.383v-.008z" fill="#E0EF29"/>
    <path d="M120.621 9.366v111.268H9.366V9.366H120.62zM129.987 0H0v130h129.987V0z" fill="#E0EF29"/>
    <path d="M48.1 69.637c4.159-2.63 7.929-1.733 12.486-.96.484-7.47 2.834-14.783 10.342-17.787 4.628-1.85 8.608-.78 13.291-.157 2.693-6.517 7.485-12.011 14.509-13.845 11.832-3.091 23.313 4.425 25.443 16.359.297 1.654.297 3.457.625 5.12 1.795.296 3.535.53 5.205.92V42.734a26.135 26.135 0 0 0-2.458-3.886c-.874-1.14-2.349-2.865-3.387-3.84-13.346-12.567-35.239-9.562-44.955 5.783-11.637-1.1-23.196 6.603-25.982 17.998-8.765.562-16.5 6.697-18.622 15.259-3.09 12.52 5.572 24.29 18.286 25.405h75.612c.507-.046 1.015-.109 1.506-.187v-9.17c-.14.038-.288.07-.429.1-25.279.672-50.668.11-75.986.29-10.872-.969-14.556-15.103-5.48-20.848H48.1z" fill="#E0EF29"/>
</svg>
