<svg width="167" height="98" viewBox="0 0 167 98" fill="none" xmlns="http://www.w3.org/2000/svg">
    <g clip-path="url(#xf55ispx9a)" fill="#e0ef29">
        <path d="M83.501 7.898c-28.618 0-51.81 18.403-51.81 41.107s23.192 41.097 51.81 41.097c28.618 0 51.81-18.403 51.81-41.097 0-22.694-23.202-41.107-51.81-41.107zM40.51 49.005C49.187 36.211 63.481 27.51 79.89 26.4c-5.805 2.706-10.075 11.803-10.075 22.605s4.27 19.9 10.075 22.605c-16.409-1.12-30.703-9.821-39.38-22.605zM87.112 71.61c5.805-2.706 10.075-11.803 10.075-22.605s-4.27-19.9-10.075-22.605a51.748 51.748 0 0 1 39.371 22.605C117.805 61.79 103.511 70.49 87.112 71.61z"/>
        <path d="M97.188 49.005c0 10.802-4.27 19.9-10.075 22.605-1.197.089-2.394.129-3.611.129s-2.414-.04-3.61-.13c-5.806-2.705-10.076-11.802-10.076-22.604s4.27-19.9 10.075-22.605a48.446 48.446 0 0 1 3.611-.128c1.217 0 2.414.04 3.61.128 5.806 2.706 10.076 11.803 10.076 22.605z"/>
        <path d="M97.188 49.005c0 10.802-4.27 19.9-10.075 22.605-1.197.089-2.394.129-3.611.129s-2.414-.04-3.61-.13c-5.806-2.705-10.076-11.802-10.076-22.604s4.27-19.9 10.075-22.605a48.446 48.446 0 0 1 3.611-.128c1.217 0 2.414.04 3.61.128 5.806 2.706 10.076 11.803 10.076 22.605z"/>
        <path d="M97.188 49.005c0 10.802-4.27 19.9-10.075 22.605a8.372 8.372 0 0 1-3.611.833 8.372 8.372 0 0 1-3.61-.833c-5.806-2.705-10.076-11.803-10.076-22.605 0-10.801 4.27-19.899 10.075-22.604a8.372 8.372 0 0 1 3.611-.833c1.247 0 2.464.288 3.61.833 5.806 2.705 10.076 11.803 10.076 22.604z"/>
    </g>
    <defs>
        <clipPath id="xf55ispx9a">
            <path fill="#fff" d="M0 0h167v98H0z"/>
        </clipPath>
    </defs>
</svg>
