<svg width="167" height="99" viewBox="0 0 167 99" fill="none" xmlns="http://www.w3.org/2000/svg">
    <g clip-path="url(#jjazzweqxa)" fill="#fff">
        <path d="M92.787 80.41H43.17c-16.977 0-30.792-13.866-30.792-30.905S26.194 18.6 43.172 18.6h49.615c16.977 0 30.792 13.865 30.792 30.904s-13.815 30.904-30.792 30.904zM43.17 34.287c-8.358 0-15.161 6.828-15.161 15.217 0 8.39 6.802 15.217 15.162 15.217h49.615c8.359 0 15.162-6.828 15.162-15.217 0-8.39-6.803-15.217-15.162-15.217H43.17z"/>
        <path d="M123.83 80.41H74.214c-16.977 0-30.792-13.866-30.792-30.905S57.237 18.6 74.214 18.6h49.616c16.977 0 30.792 13.865 30.792 30.904s-13.815 30.904-30.792 30.904zM74.214 34.287c-8.358 0-15.161 6.828-15.161 15.217 0 8.39 6.803 15.217 15.161 15.217h49.616c8.359 0 15.162-6.828 15.162-15.217 0-8.39-6.803-15.217-15.162-15.217H74.214z"/>
    </g>
    <defs>
        <clipPath id="jjazzweqxa">
            <path fill="#fff" d="M0 0h167v99H0z"/>
        </clipPath>
    </defs>
</svg>
