<svg width="167" height="99" viewBox="0 0 167 99" fill="none" xmlns="http://www.w3.org/2000/svg">
    <g clip-path="url(#ymlsq9xxqa)" fill="#fff">
        <path d="M66.91 49.505c0-12.654 6.633-23.746 16.588-29.983a34.91 34.91 0 0 0-18.613-5.346c-19.441 0-35.201 15.817-35.201 35.329s15.76 35.33 35.201 35.33a34.96 34.96 0 0 0 18.613-5.347C73.543 73.251 66.91 62.16 66.91 49.505zM102.113 14.176A34.961 34.961 0 0 0 83.5 19.522c9.955 6.237 16.588 17.329 16.588 29.983S93.455 73.251 83.5 79.488a34.91 34.91 0 0 0 18.613 5.346c19.441 0 35.202-15.817 35.202-35.329s-15.761-35.33-35.202-35.33z"/>
    </g>
    <defs>
        <clipPath id="ymlsq9xxqa">
            <path fill="#fff" d="M0 0h167v99H0z"/>
        </clipPath>
    </defs>
</svg>
