<svg width="167" height="99" viewBox="0 0 167 99" fill="none" xmlns="http://www.w3.org/2000/svg">
    <g clip-path="url(#frchor6lra)" fill="#1F1F1F">
        <path d="M19.113 61.148v-7.769h-6.504v-7.768h6.504v-7.77h6.424v-7.768h6.424v-7.768h12.927v7.768h-6.424v7.769h-6.503v7.769h-6.424v7.768h6.424v7.769h6.503v7.768h6.424v7.77H31.961v-7.77h-6.424v-7.768h-6.424zM57.727 76.685v-7.769h6.423v-7.768h6.504v-7.769h6.424v-7.768h6.424v-7.77h6.503v-7.768h6.424v-7.768h6.424v15.537h-6.424v7.769h-6.424v7.768h-6.503v7.769h-6.424v7.768h-6.424v7.77H57.727zM122.195 76.685v-7.769h6.424v-7.768h6.424v-7.769h6.504v-7.768h-6.504v-7.77h-6.424v-7.768h-6.424v-7.768h12.848v7.768h6.504v7.769h6.423v7.769h6.424v7.768h-6.424v7.769h-6.423v7.768h-6.504v7.77h-12.848z"/>
    </g>
    <defs>
        <clipPath id="frchor6lra">
            <path fill="#fff" d="M0 0h167v99H0z"/>
        </clipPath>
    </defs>
</svg>
