<svg width="67" height="67" viewBox="0 0 67 67" fill="none" xmlns="http://www.w3.org/2000/svg">
    <path d="M28.638 67V48.764l1.89-6.08-1.62-.674-3.784 6.754L13.239 60.65l-6.889-6.888 11.887-11.886 6.754-3.783-.673-1.62-6.08 1.893H0v-9.724h18.236l6.08 1.89.674-1.62-6.754-3.783L6.35 13.242l6.889-6.888L25.125 18.24l3.782 6.753 1.62-.677-1.89-6.08V0h9.725v18.236l-1.89 6.08 1.62.678 3.784-6.753L53.761 6.354l6.889 6.888-11.887 11.887-6.754 3.782.673 1.62 6.08-1.889H67v9.724H48.764l-6.08-1.893-.674 1.62 6.754 3.782L60.65 53.763l-6.888 6.889-11.886-11.887-3.783-6.754-1.62.673 1.89 6.08V67h-9.725z" fill="#E0EF29"/>
</svg>
