<svg width="290" height="290" viewBox="0 0 290 290" fill="none" xmlns="http://www.w3.org/2000/svg">
    <path d="M123.955 290v-78.934l8.178-26.317-7.012-2.914-16.373 29.231-51.451 51.451-29.814-29.814 51.45-51.451 29.232-16.373-2.914-7.012-26.317 8.196H0v-42.09h78.934l26.317 8.178 2.914-7.012-29.231-16.373-51.451-51.45L57.297 27.5l51.451 51.45 16.373 29.232 7.012-2.932-8.178-26.317V0h42.09v78.934l-8.178 26.317 7.012 2.932 16.373-29.231 51.451-51.45 29.814 29.813-51.451 51.451-29.231 16.373 2.914 7.012 26.317-8.178H290v42.09h-78.934l-26.317-8.196-2.914 7.012 29.231 16.373 51.451 51.451-29.814 29.814-51.451-51.451-16.373-29.231-7.012 2.914 8.178 26.317V290h-42.09z" fill="#FF4D20"/>
</svg>
