<svg width="71" height="68" viewBox="0 0 71 68" fill="none" xmlns="http://www.w3.org/2000/svg">
    <g clip-path="url(#sqas892ula)">
        <path d="M35.008 67.864c18.69 0 33.84-15.15 33.84-33.84 0-18.69-15.15-33.84-33.84-33.84-18.69 0-33.84 15.15-33.84 33.84 0 18.69 15.15 33.84 33.84 33.84z" fill="#E0EF29"/>
        <path d="M66.828 34.618c-16.515.472-29.935 13.654-31.283 30.346-1.355-16.711-14.801-29.9-31.347-30.35 16.795-.51 30.366-14.156 31.283-31.27.917 17.13 14.526 30.79 31.347 31.274z" fill="#000"/>
    </g>
    <defs>
        <clipPath id="sqas892ula">
            <path fill="#fff" transform="scale(1.01015)" d="M0 0h70.157v67.316H0z"/>
        </clipPath>
    </defs>
</svg>
